<svg xmlns="http://www.w3.org/2000/svg"  viewBox="0 0 64 64" width="128px" height="128px"><path fill="#fd3c4f" d="M23.785,24.394C35,22,34.493,12.003,33.913,7.419c-0.129-1.019,0.959-1.757,1.85-1.247	c8.323,4.762,16.774,13.633,16.774,26.731C52.537,43.465,44.176,53,32,53c-13.203,0-20.537-9.242-20.537-20.244	c0-6.117,3.897-12.711,8.845-15.634c0.52-0.307,1.187,0.049,1.216,0.651c0.083,1.752,0.454,4.34,2.114,6.474L23.785,24.394z"/><ellipse cx="32" cy="61" opacity=".3" rx="15" ry="3"/><path d="M52.54,32.9C52.54,43.46,44.18,53,32,53c-1.76,0-3.42-0.16-4.97-0.48C27.27,49.98,29.4,48,32,48	c9.73,0,15.54-7.68,15.54-15.1c0-2.69-0.44-5.3-1.3-7.74c-0.86-2.47,0.32-5.15,2.64-6.21C51.12,22.9,52.54,27.54,52.54,32.9z" opacity=".15"/><path fill="#fff" d="M38.89,14.75c-1.17,7.69-6.17,12.85-14.06,14.53c-0.35,0.08-0.7,0.11-1.04,0.11	c-1.31,0-2.58-0.51-3.52-1.44l-0.15-0.15c-0.15-0.15-0.3-0.31-0.43-0.48c-0.123-0.158-0.242-0.32-0.359-0.484	c-0.342-0.483-1.031-0.565-1.465-0.164c-1.475,1.365-3.669,1.725-5.526,0.838c1.42-4.32,4.43-8.29,7.97-10.39	c0.52-0.3,1.19,0.05,1.21,0.65c0.09,1.76,0.46,4.34,2.12,6.48l0.15,0.14c10.05-2.14,10.68-10.4,10.28-15.38	c0.21,0,0.41,0.02,0.63,0.05C37.43,9.47,39.31,12.02,38.89,14.75z" opacity=".44"/><path fill="#fff" d="M28.501,28c-0.578,0-1.128-0.335-1.375-0.898c-0.333-0.759,0.012-1.644,0.771-1.976	c1.352-0.593,2.582-1.337,3.656-2.211c0.643-0.523,1.588-0.426,2.11,0.217c0.523,0.643,0.426,1.587-0.217,2.11	c-1.284,1.045-2.746,1.93-4.345,2.631C28.907,27.959,28.702,28,28.501,28z"/></svg>